# xmcd
#
# Track frame offsets: 
#        183
#        12108
#        24225
#        39533
#        50970
#        59545
#        70808
#        85683
#        99148
#        114095
#        126013
#        139983
#        152263
#        163590
#        174500
#        189040
#        198563
#        211483
#        220733
#        231115
#        240348
#        255885
#        270590
#        281708
#        293150
#
# Disc length: 4099 seconds
#
# Revision: 5
# Processed by: cddbd v1.5.2PL0 Copyright (c) Steve Scherf et al.
# Submitted via: ExactAudioCopyFreeDBPlugin 1.0
#
DISCID=4e100119
DTITLE=Various Artist - Country Chartbusters 25 Golden Greats
DYEAR=1989
DGENRE=Country
TTITLE0=Don Gibson - Oh Lonesome Me
TTITLE1=Susan Raye - L.A. International Airport
TTITLE2=Bobby Bare - For The Good Times
TTITLE3=Donna Fargo - Funny Face
TTITLE4=Waylon Jennings - Abilene
TTITLE5=Kenny Rogers - Reuben James
TTITLE6=Jeannie C. Riley - Harper Valley P.T.A.
TTITLE7=Ronnie Milsap - Kentucky Woman
TTITLE8=Lynn Anderson - Could I Have This Dance
TTITLE9=Waylon Jennings - Crying
TTITLE10=Freddy Fender - Wasted Days and Wasted Nights
TTITLE11=Lynn Anderson - Stand By Your Man
TTITLE12=Stonewall Jackson - Waterloo
TTITLE13=Donna Fargo - The Happiest Girl In The Whole U.S.A.
TTITLE14=George Hamilton IV - Four Strong Winds
TTITLE15=Lynn Anderson - Snowbird
TTITLE16=Tommy Overstreet - Gwen (Congratulations)
TTITLE17=George Jones - The Race Is On
TTITLE18=Boxcar Willie - Jambalaya
TTITLE19=The Harden Trio - Tippy Toeing
TTITLE20=Anne Murray - There Goes My Everything
TTITLE21=Don Gibson - I Can't Stop Loving You
TTITLE22=Roger Miller - King Of The Road
TTITLE23=Dolly Parton - Makin' Believe
TTITLE24=Mickey Gilley - Rocky Top
EXTD=YEAR: 1991
EXTT0=
EXTT1=
EXTT2=
EXTT3=
EXTT4=
EXTT5=
EXTT6=
EXTT7=
EXTT8=
EXTT9=
EXTT10=
EXTT11=
EXTT12=
EXTT13=
EXTT14=
EXTT15=
EXTT16=
EXTT17=
EXTT18=
EXTT19=
EXTT20=
EXTT21=
EXTT22=
EXTT23=
EXTT24=
PLAYORDER=
